<svg width="180" height="155" viewBox="0 0 180 155" fill="none" xmlns="http://www.w3.org/2000/svg">
<g clip-path="url(#clip0_131_273)">
<path d="M162.794 89.6428L128.99 127.485C115.468 142.621 93.5631 142.621 80.3117 127.485C67.3309 112.953 66.5202 89.945 78.4189 74.8085L80.0417 72.9919C81.3938 70.8731 84.3686 70.57 85.9914 72.3866C87.8842 74.2032 88.1549 77.2304 86.5321 79.3493L85.18 81.1659C76.2555 92.67 76.7962 109.926 86.2614 120.521C96.538 132.025 112.764 132.025 123.04 120.521L156.574 82.9825C166.85 71.4784 166.85 53.3147 156.574 41.8106C146.568 30.6095 130.071 30.6095 120.065 41.8106L113.846 48.7732C112.223 50.5898 109.519 50.5898 107.626 48.7732C106.003 46.6543 106.003 43.6272 107.626 41.8106L113.846 34.848C127.367 19.7107 149.272 19.7107 162.794 34.848C176.315 49.9845 176.315 74.5055 162.794 89.6428ZM15.9492 89.6428L49.7532 52.1034C63.2747 36.9668 84.9093 36.9668 98.7015 52.1034C111.412 66.3324 112.223 89.3398 100.324 104.779L98.7015 106.596C97.3494 108.715 94.6452 109.018 92.7518 107.201C90.859 105.385 90.5883 102.357 92.2111 100.239L93.8339 98.422C102.488 86.9179 101.946 69.6617 92.4818 59.0667C82.2052 47.5626 65.9788 47.5626 55.7029 59.0667L22.1689 96.6054C11.8923 108.109 11.8923 126.273 22.1689 137.777C32.1748 148.978 48.6712 148.978 58.6771 137.777L64.8975 130.815C66.5202 128.998 69.2244 128.998 71.1172 130.815C72.7399 132.631 72.7399 135.961 71.1172 137.777L64.8975 144.438C51.376 159.574 29.4707 159.574 15.9492 144.438C2.42708 129.301 2.42708 104.779 15.9492 89.6428Z" fill="#EB568E"/>
<path d="M162.794 85.508L128.99 123.35C115.468 138.487 93.5631 138.487 80.3117 123.35C67.3309 108.818 66.5202 85.8111 78.4189 70.6746L80.0417 68.8579C81.3938 66.7391 84.3686 66.4361 85.9914 68.2527C87.8842 70.0685 88.1549 73.0964 86.5321 75.2153L85.18 77.0319C76.2555 88.536 76.7962 105.791 86.2614 116.387C96.538 127.891 112.764 127.891 123.04 116.387L156.574 78.8485C166.85 67.3444 166.85 49.1799 156.574 37.6766C146.568 26.4747 130.071 26.4747 120.065 37.6766L113.846 44.6392C112.223 46.4558 109.519 46.4558 107.626 44.6392C106.003 42.5203 106.003 39.4924 107.626 37.6766L113.846 30.7132C127.367 15.5767 149.272 15.5767 162.794 30.7132C176.315 45.8498 176.315 70.3715 162.794 85.508ZM15.9492 85.508L49.7532 47.9694C63.2747 32.8329 84.9093 32.8329 98.7015 47.9694C111.412 62.1976 112.223 85.2058 100.324 100.645L98.7015 102.461C97.3494 104.581 94.6452 104.883 92.7518 103.067C90.859 101.251 90.5883 98.2235 92.2111 96.1039L93.8339 94.2872C102.488 82.7839 101.946 65.5278 92.4818 54.932C82.2052 43.4279 65.9788 43.4279 55.7029 54.932L22.1689 92.4714C11.8923 103.975 11.8923 122.139 22.1689 133.643C32.1748 144.844 48.6712 144.844 58.6771 133.643L64.8975 126.68C66.5202 124.864 69.2244 124.864 71.1172 126.68C72.7399 128.497 72.7399 131.827 71.1172 133.643L64.8975 140.303C51.376 155.44 29.4707 155.44 15.9492 140.303C2.42708 125.166 2.42708 100.645 15.9492 85.508Z" fill="#F86099"/>
<path d="M162.794 81.3748L128.99 119.216C115.468 134.353 93.5631 134.353 80.3117 119.216C67.3309 104.685 66.5202 81.6778 78.4189 66.5405L80.0417 64.7247C81.3938 62.605 84.3686 62.3028 85.9914 64.1186C87.8842 65.9352 88.1549 68.9624 86.5321 71.082L85.18 72.8978C76.2555 84.4019 76.7962 101.658 86.2614 112.254C96.538 123.758 112.764 123.758 123.04 112.254L156.574 74.7144C166.85 63.2103 166.85 45.0466 156.574 33.5425C146.568 22.3415 130.071 22.3415 120.065 33.5425L113.846 40.5059C112.223 42.3217 109.519 42.3217 107.626 40.5059C106.003 38.3863 106.003 35.3591 107.626 33.5425L113.846 26.5799C127.367 11.4434 149.272 11.4434 162.794 26.5799C176.315 41.7165 176.315 66.2382 162.794 81.3748ZM15.9492 81.3748L49.7532 43.8353C63.2747 28.6988 84.9093 28.6988 98.7015 43.8353C111.412 58.0643 112.223 81.0717 100.324 96.5113L98.7015 98.3279C97.3494 100.447 94.6452 100.75 92.7518 98.9332C90.859 97.1166 90.5883 94.0894 92.2111 91.9706L93.8339 90.154C102.488 78.6499 101.946 61.3945 92.4818 50.7987C82.2052 39.2946 65.9788 39.2946 55.7029 50.7987L22.1689 88.3374C11.8923 99.8415 11.8923 118.006 22.1689 129.509C32.1748 140.71 48.6712 140.71 58.6771 129.509L64.8975 122.547C66.5202 120.73 69.2244 120.73 71.1172 122.547C72.7399 124.363 72.7399 127.693 71.1172 129.509L64.8975 136.17C51.376 151.306 29.4707 151.306 15.9492 136.17C2.42708 121.033 2.42708 96.5113 15.9492 81.3748Z" fill="#FC78AA"/>
<path d="M162.794 73.6248L128.99 111.466C115.468 126.603 93.5631 126.603 80.3117 111.466C67.3309 96.9352 66.5202 73.9278 78.4189 58.7905L80.0417 56.9747C81.3938 54.855 84.3686 54.5528 85.9914 56.3686C87.8842 58.1852 88.1549 61.2124 86.5321 63.332L85.18 65.1478C76.2555 76.6519 76.7962 93.9081 86.2614 104.504C96.538 116.008 112.764 116.008 123.04 104.504L156.574 66.9644C166.85 55.4603 166.85 37.2966 156.574 25.7925C146.568 14.5915 130.071 14.5915 120.065 25.7925L113.846 32.7559C112.223 34.5717 109.519 34.5717 107.626 32.7559C106.003 30.6363 106.003 27.6091 107.626 25.7925L113.846 18.8299C127.367 3.69341 149.272 3.69341 162.794 18.8299C176.315 33.9665 176.315 58.4882 162.794 73.6248ZM15.9492 73.6248L49.7532 36.0853C63.2747 20.9488 84.9093 20.9488 98.7015 36.0853C111.412 50.3143 112.223 73.3217 100.324 88.7613L98.7015 90.5779C97.3494 92.6967 94.6452 92.9998 92.7518 91.1832C90.859 89.3666 90.5883 86.3394 92.2111 84.2206L93.8339 82.404C102.488 70.8999 101.946 53.6445 92.4818 43.0487C82.2052 31.5446 65.9788 31.5446 55.7029 43.0487L22.1689 80.5874C11.8923 92.0915 11.8923 110.256 22.1689 121.759C32.1748 132.96 48.6712 132.96 58.6771 121.759L64.8975 114.797C66.5202 112.98 69.2244 112.98 71.1172 114.797C72.7399 116.613 72.7399 119.943 71.1172 121.759L64.8975 128.42C51.376 143.556 29.4707 143.556 15.9492 128.42C2.42708 113.283 2.42708 88.7613 15.9492 73.6248Z" fill="#FC78AA"/>
</g>
<defs>
<clipPath id="clip0_131_273">
<rect width="180" height="155" fill="white"/>
</clipPath>
</defs>
</svg>
